<svg xmlns="http://www.w3.org/2000/svg" xmlns:xlink="http://www.w3.org/1999/xlink" viewBox="0 0 791.58 739.95"><defs><linearGradient id="a" x1="228.57" y1="388.37" x2="416.15" y2="496.67" gradientUnits="userSpaceOnUse"><stop offset="0.7" stop-color="#fff"/><stop offset="0.8" stop-color="#b2b3d2"/><stop offset="0.89" stop-color="#6b6ca8"/><stop offset="0.96" stop-color="#3e3f8d"/><stop offset="1" stop-color="#2d2e83"/></linearGradient><linearGradient id="b" x1="210.86" y1="357.24" x2="442.77" y2="491.14" gradientUnits="userSpaceOnUse"><stop offset="0.7" stop-color="#fff"/><stop offset="0.84" stop-color="#8cd4f2"/><stop offset="1" stop-color="#009fe3"/></linearGradient><linearGradient id="c" x1="194.28" y1="323.69" x2="483.75" y2="490.82" xlink:href="#b"/><linearGradient id="d" x1="179.86" y1="291.08" x2="507.99" y2="480.52" gradientUnits="userSpaceOnUse"><stop offset="0.7" stop-color="#fff"/><stop offset="0.86" stop-color="#8e8ebc"/><stop offset="1" stop-color="#2d2e83"/></linearGradient><linearGradient id="e" x1="284.55" y1="351.68" x2="469.33" y2="458.37" gradientUnits="userSpaceOnUse"><stop offset="0.47" stop-color="#fff"/><stop offset="0.54" stop-color="#d6f0fb"/><stop offset="0.71" stop-color="#7ccef1"/><stop offset="0.85" stop-color="#39b4e9"/><stop offset="0.95" stop-color="#10a5e5"/><stop offset="1" stop-color="#009fe3"/></linearGradient></defs><circle cx="369.97" cy="369.97" r="361.97" style="fill:none;stroke:#fff;stroke-miterlimit:10;stroke-width:16px"/><ellipse cx="361.21" cy="369.17" rx="10.7" ry="18.06" transform="translate(-92.02 616.84) rotate(-74.28)" style="fill:#2d2e83;stroke:#2d2e83;stroke-linecap:round;stroke-miterlimit:10"/><path d="M365.83,448.24V606.72c0,11.59,18,11.61,18,0V448.24c0-11.58-18-11.6-18,0Z" style="fill:#fff"/><path d="M366.66,401.06v15.88a9,9,0,0,0,18,0V401.06a9,9,0,0,0-18,0Z" style="fill:#fff"/><path d="M547.43,434.27v79.94c0,11.58,18,11.6,18,0V434.27c0-11.58-18-11.6-18,0Z" style="fill:#fff"/><path d="M576.61,350.85v36.63c0,11.59,18,11.61,18,0V350.85c0-11.58-18-11.6-18,0Z" style="fill:#3aaa35"/><path d="M304.75,504.06V641.15c0,11.58,18,11.6,18,0V504.06c0-11.58-18-11.6-18,0Z" style="fill:#fff"/><path d="M275,493.23V630.31c0,11.58,18,11.6,18,0V493.23c0-11.59-18-11.61-18,0Z" style="fill:#fff"/><path d="M395.83,567.48v79.93c0,11.58,18,11.6,18,0V567.48c0-11.59-18-11.61-18,0Z" style="fill:#2d2e83"/><path d="M425.72,557.28v40c0,11.58,18,11.6,18,0v-40c0-11.58-18-11.6-18,0Z" style="fill:#fff"/><path d="M473.18,412c0-17.76,1.13-35.84-1.49-53.45A119.25,119.25,0,0,0,423,279.12,102.85,102.85,0,0,0,383.09,262c-14.44-2.71-29-1.92-43.45.4-26.13,4.19-51.47,16.39-68.11,37.43-16.29,20.6-23.58,46.86-24.37,72.87-.26,8.85-.11,17.74-.16,26.6L246.23,523c-.18,30.2-1.06,60.48-.56,90.67,0,.51,0,1,0,1.53-.07,11.59,17.93,11.6,18,0l.45-72.28.77-124.58c.17-26.82-2.12-55.16,6.5-81a82.24,82.24,0,0,1,47.24-50.59c23.33-9.43,51.12-12,74.91-3.11,25.75,9.62,46.15,32,55.31,57.69,7.48,20.94,6.34,41.95,6.34,63.75V412c0,11.58,18,11.6,18,0Z" style="fill:url(#a)"/><path d="M502.63,401.54c0-17.57,1.27-35.55-1.44-53-4.72-30.33-20.79-59.11-42.73-80.38-24.24-23.51-56.23-37.84-90.06-39.2-32.52-1.3-66.19,8.07-93,26.67-26.11,18.14-46,44.76-53.55,75.88-3.28,13.59-3.58,27.12-3.69,40.94l-1,120.13c-.28,32.63-1.2,65.33-.83,98,0,.56,0,1.13,0,1.69-.1,11.59,17.9,11.6,18,0l.67-78.74,1.06-125.23c.08-9.59.08-19.19.25-28.78a107.74,107.74,0,0,1,26.72-69c40.33-45.83,113.27-57.9,164.72-24.09A130.19,130.19,0,0,1,479,333.54c3.24,9.82,5.6,20.16,5.6,30.54v37.46c0,11.59,18,11.61,18,0Z" style="fill:url(#b)"/><path d="M532.79,420c4.63-63.28-7.59-132.81-56.06-177.78-38-35.25-90.8-48.27-141.44-41-49.22,7.07-95.73,34.14-123.34,75.92-14.84,22.45-23.16,48.55-25.36,75.29-1.3,15.89-.6,32.09-.76,48q-.83,78.9-1.64,157.78l0,3.56c-.12,11.58,17.88,11.59,18,0l1.41-136.22q.34-32.26.67-64.54c0-1.28,0-2.56,0-3.84.1-2.87.38-5.75.68-8.6.09-.84.19-1.69.29-2.53.33-2.78-.27,1.8.13-1,.24-1.66.5-3.31.79-5a152.57,152.57,0,0,1,4.61-19c.87-2.78,1.82-5.54,2.86-8.26a68.67,68.67,0,0,1,3-7.23c10.28-22.3,23.65-38.64,43.08-53.94,2-1.55-1.45,1.08.55-.43.6-.45,1.2-.9,1.81-1.34,1.1-.81,2.22-1.61,3.35-2.4q3.85-2.69,7.84-5.14c4.9-3,10-5.8,15.13-8.33,2.48-1.21,5-2.35,7.52-3.45,2.32-1-1.71.69.63-.26l2.09-.84q2.46-1,4.93-1.87,8.15-3,16.55-5.12a180.33,180.33,0,0,1,17.7-3.65c.6-.1,4.34-.61,2.09-.32,1.49-.19,3-.37,4.48-.52,3-.32,6-.55,9-.72a178,178,0,0,1,18-.05q4.13.19,8.23.59,2.06.21,4.11.45l1.86.23c-2.35-.31.9.15,1.32.22a160.67,160.67,0,0,1,34,9.09c.64.25,4.53,1.88,2.72,1.09,1.15.5,2.3,1,3.44,1.54q4.46,2,8.78,4.39a148,148,0,0,1,14.87,9.24q1.89,1.33,3.73,2.72c2,1.49-.88-.7.32.24l1.51,1.21q3.95,3.18,7.66,6.63a146.38,146.38,0,0,1,12.62,13.26c1.05,1.24,2.07,2.5,3.08,3.78,1.62,2.06-.61-.82.34.45l1.24,1.65q3.09,4.2,5.9,8.6a165.89,165.89,0,0,1,9.85,17.8c12.94,27.13,18.43,59.86,18.72,91,.09,9.52-.27,19-1,28.53-.36,4.86,4.39,9,9,9,5.16,0,8.64-4.13,9-9Z" style="fill:url(#c)"/><path d="M563.91,397.74c-.59-20.92-.29-41.83-4.33-62.46a221.54,221.54,0,0,0-34.73-82.21c-18.75-27.23-43.69-50.35-73.48-65-34.82-17.14-73.86-22.19-112.24-18-36,3.93-71.12,15.67-100.54,37.09a199.2,199.2,0,0,0-59.92,70c-12.3,24-20.17,50.28-22,77.2-.91,13.59-.46,27.33-.58,40.94l-1.21,133.59,0,2.92c-.1,11.59,17.9,11.6,18,0l1-115.09.49-54c.17-18.62,3.65-35.8,10.21-54.3A186.25,186.25,0,0,1,227.68,240c22.73-22.76,51.34-38.49,82.42-46.53,35.52-9.18,74.32-9.81,109.49,1.16,30.2,9.42,56.67,27.74,77.33,51.56a202.78,202.78,0,0,1,40.63,75c1.94,6.56,3.58,13.22,4.86,19.94a118.34,118.34,0,0,1,2.4,17.77c.53,9.64.54,19.33.82,29l.28,9.95c.33,11.56,18.33,11.61,18,0Z" style="fill:url(#d)"/><path d="M144,387.46c-1.73-40.73,4.69-82,23.65-118.48a201.05,201.05,0,0,1,72.06-77.5c65.65-41,152.51-49.77,221.62-12.17a194.06,194.06,0,0,1,88.52,102.16c1.71,4.55,6.07,7.66,11.07,6.29,4.36-1.2,8-6.5,6.28-11.08-15.92-42.33-43.92-78.77-81.71-103.84-36.34-24.11-80.21-36.21-123.72-35.65-79.48,1-160.16,41.34-202.31,109.74-25.87,42-35.53,91.68-33.46,140.53.49,11.54,18.49,11.6,18,0Z" style="fill:#fff"/><path d="M200.11,182.94c27.37-22.67,58.11-42,92.1-52.92s70.33-13.09,105.62-7.3A299.89,299.89,0,0,1,451,136.38c1.13.41,2.24.84,3.35,1.28.75.29,1.5.61,2.25.91-2.2-.89-.14,0,.8.37,3.51,1.54,7,3.21,10.38,5a224,224,0,0,1,55.62,40.43A229.73,229.73,0,0,1,580.74,279c3.46,11,20.85,6.31,17.35-4.79-19-60.2-60-112-115.3-142.65-21.25-11.79-44.35-19-68.12-23.92-38.22-7.94-77.8-8.33-115.68,1.67-41.63,11-78.69,33.67-111.6,60.93-3.75,3.11-3.21,9.52,0,12.73,3.7,3.71,9,3.11,12.72,0Z" style="fill:#fff"/><path d="M293,458.2q.47-42.94.92-85.88c0-1.38,0-2.77.05-4.15a35.69,35.69,0,0,1,1-8.19,79.22,79.22,0,0,1,3.21-11.18c.18-.49.38-1,.57-1.46-.05.12-.56,1.29-.14.35s.74-1.66,1.14-2.48c.9-1.84,1.88-3.65,2.94-5.41q1.38-2.3,2.92-4.47c.29-.4,1.62-2.18,1.11-1.52s1.06-1.28,1.45-1.73a73.05,73.05,0,0,1,8-8c.67-.57,1.34-1.13,2-1.68,1.22-1-.92.63.86-.63,1.53-1.09,3.06-2.15,4.65-3.14a79.92,79.92,0,0,1,9.9-5.23c1.45-.64-1.15.41.95-.37.81-.31,1.62-.62,2.44-.91,1.76-.62,3.53-1.18,5.33-1.67s3.36-.86,5.06-1.21q1.28-.27,2.55-.48c.62-.11,3.31-.44,1.28-.21a79.2,79.2,0,0,1,11.1-.52c1.73.05,3.45.19,5.17.33.49,0,1,.11,1.47.17l-.55-.08c1.1.17,2.19.35,3.28.57A68.69,68.69,0,0,1,382,312c.82.31,1.64.62,2.45,1-1.65-.69.4.2.95.47,1.71.84,3.4,1.71,5,2.67S393.53,318,395,319c.3.21,2.74,2.07,1.31.93.83.66,1.64,1.34,2.44,2a70.74,70.74,0,0,1,8.22,8.56c.6.74,1.63,2.14,2.92,4.09s2.39,3.8,3.47,5.77a67.94,67.94,0,0,1,5.13,11.47,118.11,118.11,0,0,1,6.24,31.37c.76,11.43.43,23,.48,34.47l.5,96.95v2.18c.06,11.58,18.06,11.61,18,0l-.46-90.76c-.17-33.64,1.83-69.35-16.87-99.05-19-30.2-55.06-43.36-89.27-33.79-33.45,9.36-58.46,38.18-61,73.06-.94,12.71-.37,25.67-.5,38.4l-.54,50.47,0,3.05c-.12,11.58,17.88,11.59,18,0Z" style="fill:url(#e)"/><path d="M322.75,477.38q.4-39.6.82-79.2c.1-9.22-.45-18.74.35-27.94.09-1.07-.05.19-.07.34.07-.54.17-1.08.28-1.61.16-.8.33-1.6.54-2.38s.44-1.56.7-2.33c.16-.5,1.27-3.18.56-1.59a41.17,41.17,0,0,1,2.24-4.26c.48-.8,1-1.57,1.53-2.35,1.08-1.6-.13,0,.78-1.05a39.17,39.17,0,0,1,15.19-11.54c6.21-2.71,11.73-3.56,19.17-2.89.44,0-.82-.22.84.13.8.17,1.61.32,2.41.51s1.86.5,2.77.79c.5.17,2.57.94,2.05.72a42.67,42.67,0,0,1,8.09,5.09c6.36,5.85,10.53,13,13.28,21.79.39,1.24.74,2.49,1.07,3.75.14.51.79,3.43.48.93,0,.2,0,.41,0,.61.08,1,0,2,.06,3l1.48,83.35c.45,25.55.36,51.18,1.36,76.72,0,.44,0,.87,0,1.31.21,11.57,18.21,11.61,18,0l-1.23-69.59-1.61-90.4c-.25-14.19-6.29-28.22-15.29-39.11-11.74-14.22-30-20-47.92-16.89-16,2.77-31.33,13.37-39.08,27.75-5.77,10.71-5.8,21.88-5.92,33.62q-.46,45.13-.94,90.29l0,2.4c-.12,11.59,17.88,11.6,18,0Z" style="fill:#fff"/><path d="M335.29,396.73V647.41c0,11.58,18,11.6,18,0V396.73c0-11.58-18-11.6-18,0Z" style="fill:#fff"/><circle cx="99.75" cy="244.25" r="17.97" style="fill:#fff;stroke:#fff;stroke-linecap:round;stroke-miterlimit:10"/><circle cx="576.49" cy="156.24" r="17.97" style="fill:#fff;stroke:#fff;stroke-linecap:round;stroke-miterlimit:10"/><circle cx="89.08" cy="460.23" r="17.97" style="fill:#fff;stroke:#fff;stroke-linecap:round;stroke-miterlimit:10"/><circle cx="476.26" cy="537.05" r="20.23" style="fill:#3aaa35;stroke:#3aaa35;stroke-linecap:round;stroke-miterlimit:10"/><circle cx="517.13" cy="577.27" r="14.16" style="fill:#009fe3;stroke:#009fe3;stroke-linecap:round;stroke-miterlimit:10"/><circle cx="463.14" cy="579.15" r="13.12" style="fill:#fff;stroke:#fff;stroke-linecap:round;stroke-miterlimit:10"/><circle cx="495.14" cy="610.37" r="13.12" style="fill:#fff;stroke:#fff;stroke-linecap:round;stroke-miterlimit:10"/><circle cx="436.89" cy="634.29" r="13.12" style="fill:#fff;stroke:#fff;stroke-linecap:round;stroke-miterlimit:10"/><circle cx="374.56" cy="647.41" r="13.12" style="fill:#fff;stroke:#fff;stroke-linecap:round;stroke-miterlimit:10"/><circle cx="135" cy="421.15" r="13.12" style="fill:#fff;stroke:#fff;stroke-linecap:round;stroke-miterlimit:10"/><circle cx="135" cy="461.37" r="13.12" style="fill:#fff;stroke:#fff;stroke-linecap:round;stroke-miterlimit:10"/><circle cx="463.14" cy="448.87" r="13.12" style="fill:#2d2e83;stroke:#2d2e83;stroke-linecap:round;stroke-miterlimit:10"/><circle cx="554.91" cy="544.59" r="13.12" style="fill:#2d2e83;stroke:#2d2e83;stroke-linecap:round;stroke-miterlimit:10"/><circle cx="638.21" cy="353.65" r="13.12" style="fill:#fff;stroke:#fff;stroke-linecap:round;stroke-miterlimit:10"/><circle cx="581.96" cy="423.07" r="11.2" style="fill:#fff;stroke:#fff;stroke-linecap:round;stroke-miterlimit:10"/><circle cx="463.14" cy="489.4" r="11.2" style="fill:#2d2e83;stroke:#2d2e83;stroke-linecap:round;stroke-miterlimit:10"/><circle cx="464.18" cy="612.21" r="11.2" style="fill:#fff;stroke:#fff;stroke-linecap:round;stroke-miterlimit:10"/><circle cx="183.7" cy="127.07" r="11.2" style="fill:#fff;stroke:#fff;stroke-linecap:round;stroke-miterlimit:10"/><circle cx="167.86" cy="201.26" r="11.2" style="fill:#009fe3;stroke:#009fe3;stroke-linecap:round;stroke-miterlimit:10"/><circle cx="69.24" cy="365.72" r="22.21" style="fill:#009fe3;stroke:#009fe3;stroke-linecap:round;stroke-miterlimit:10"/><circle cx="617.79" cy="521.34" r="20.41" style="fill:#009fe3;stroke:#009fe3;stroke-linecap:round;stroke-miterlimit:10"/><circle cx="576.25" cy="313.71" r="14.7" style="fill:#009fe3;stroke:#009fe3;stroke-linecap:round;stroke-miterlimit:10"/><circle cx="495.14" cy="485.9" r="14.7" style="fill:#009fe3;stroke:#009fe3;stroke-linecap:round;stroke-miterlimit:10"/><circle cx="495.14" cy="437.77" r="14.7" style="fill:#009fe3;stroke:#009fe3;stroke-linecap:round;stroke-miterlimit:10"/><ellipse cx="522.76" cy="522.07" rx="10.7" ry="22.36" style="fill:#1d71b8;stroke:#1d71b8;stroke-linecap:round;stroke-miterlimit:10"/><ellipse cx="525.14" cy="462.82" rx="10.7" ry="18.15" style="fill:#2d2e83;stroke:#2d2e83;stroke-linecap:round;stroke-miterlimit:10"/><circle cx="627.86" cy="437.4" r="21.93" style="fill:#2d2e83;stroke:#2d2e83;stroke-linecap:round;stroke-miterlimit:10"/><circle cx="586.23" cy="472.12" r="13.7" style="fill:#3aaa35;stroke:#3aaa35;stroke-linecap:round;stroke-miterlimit:10"/><circle cx="624.33" cy="258.12" r="20.23" style="fill:#fff;stroke:#fff;stroke-linecap:round;stroke-miterlimit:10"/><line x1="658.29" y1="274.98" x2="786.58" y2="274.98" style="fill:#1d1d1b;stroke:#fff;stroke-linecap:square;stroke-miterlimit:10;stroke-width:10px"/><line x1="604.1" y1="314.75" x2="786.58" y2="314.75" style="fill:#1d1d1b;stroke:#fff;stroke-linecap:square;stroke-miterlimit:10;stroke-width:10px"/><line x1="668.85" y1="354.51" x2="786.58" y2="354.51" style="fill:#1d1d1b;stroke:#fff;stroke-linecap:square;stroke-miterlimit:10;stroke-width:10px"/><line x1="638.19" y1="394.28" x2="786.58" y2="394.28" style="fill:#1d1d1b;stroke:#fff;stroke-linecap:square;stroke-miterlimit:10;stroke-width:10px"/><line x1="661.63" y1="434.05" x2="786.58" y2="434.05" style="fill:#1d1d1b;stroke:#fff;stroke-linecap:square;stroke-miterlimit:10;stroke-width:10px"/></svg>