<svg xmlns="http://www.w3.org/2000/svg" viewBox="0 0 150 161.73"><path d="M75,122a2,2,0,0,1,0-4,43.08,43.08,0,0,0,35.18-18.27,2,2,0,0,1,3.27,2.3A47.1,47.1,0,0,1,75,122Z" style="fill:#fff"/><path d="M114.89,97.84a2.05,2.05,0,0,1-.92-.23,2,2,0,0,1-.85-2.7,43.05,43.05,0,0,0-2.8-44.45,2,2,0,1,1,3.28-2.28,47,47,0,0,1,3.07,48.58A2,2,0,0,1,114.89,97.84Z" style="fill:#fff"/><path d="M106.22,44.59a2,2,0,0,1-1.39-.56A42.76,42.76,0,0,0,75,32a43.42,43.42,0,0,0-9.66,1.09,2,2,0,0,1-.9-3.9A47.29,47.29,0,0,1,75,28a46.77,46.77,0,0,1,32.61,13.15,2,2,0,0,1,0,2.83A2,2,0,0,1,106.22,44.59Z" style="fill:#fff"/><path d="M30,77a2,2,0,0,1-2-2A47.13,47.13,0,0,1,51.84,34.09a2,2,0,1,1,2,3.48A43.14,43.14,0,0,0,32,75,2,2,0,0,1,30,77Z" style="fill:#fff"/><path d="M61,119.77a2,2,0,0,1-.63-.1A46.9,46.9,0,0,1,29.75,87.73a2,2,0,0,1,3.85-1.08,42.91,42.91,0,0,0,28,29.22,2,2,0,0,1-.62,3.9Z" style="fill:#fff"/><path d="M25.4,61.35a1.8,1.8,0,0,1-.6-.1,2,2,0,0,1-1.31-2.51,54.21,54.21,0,0,1,34-34.82,2,2,0,0,1,1.3,3.78A50.21,50.21,0,0,0,27.3,60,2,2,0,0,1,25.4,61.35Z" style="fill:#fff"/><path d="M33,107.72a2,2,0,0,1-1.61-.81A53.64,53.64,0,0,1,21,75a54.38,54.38,0,0,1,.72-8.85,2,2,0,0,1,4,.65A51,51,0,0,0,25,75a49.65,49.65,0,0,0,9.65,29.54A2,2,0,0,1,33,107.72Z" style="fill:#fff"/><path d="M75,129a53.66,53.66,0,0,1-38.35-16,2,2,0,1,1,2.84-2.82,50,50,0,0,0,72.2-1.24,2,2,0,0,1,2.94,2.72A54.16,54.16,0,0,1,75,129Z" style="fill:#fff"/><path d="M119.15,104.48a2,2,0,0,1-1.06-.3,2,2,0,0,1-.64-2.75A50.18,50.18,0,0,0,123.3,62a2,2,0,1,1,3.86-1,54.14,54.14,0,0,1-6.31,42.56A2,2,0,0,1,119.15,104.48Z" style="fill:#fff"/><path d="M120.22,51.31a2,2,0,0,1-1.74-1A50.14,50.14,0,0,0,75,25a50.91,50.91,0,0,0-9.72.94A2,2,0,0,1,64.5,22,54.1,54.1,0,0,1,122,48.32a2,2,0,0,1-.75,2.73A2,2,0,0,1,120.22,51.31Z" style="fill:#fff"/><path d="M20.82,53.61a2,2,0,0,1-.8-.16,2,2,0,0,1-1-2.63A61.42,61.42,0,0,1,36.81,27.43a2,2,0,0,1,2.51,3.12A57.27,57.27,0,0,0,22.65,52.41,2,2,0,0,1,20.82,53.61Z" style="fill:#fff"/><path d="M61,134.32a2,2,0,0,1-.48-.06A61.07,61.07,0,0,1,16.17,58.82,2,2,0,0,1,20,59.88a57.07,57.07,0,0,0,41.41,70.5,2,2,0,0,1-.47,3.94Z" style="fill:#fff"/><path d="M75,136c-1.13,0-2.27,0-3.4-.09a2,2,0,0,1,.22-4c1.05.06,2.12.09,3.18.09a57,57,0,0,0,36.86-13.52,2,2,0,0,1,2.59,3A61.05,61.05,0,0,1,75,136Z" style="fill:#fff"/><path d="M120.23,114.89a2,2,0,0,1-1.54-3.28A57,57,0,0,0,104.19,26a2,2,0,1,1,2.06-3.43,61,61,0,0,1,15.51,91.58A2,2,0,0,1,120.23,114.89Z" style="fill:#fff"/><path d="M47.11,25a2,2,0,0,1-1-3.76,61.16,61.16,0,0,1,52.11-2.65,2,2,0,0,1-1.53,3.7,57.16,57.16,0,0,0-48.69,2.47A2,2,0,0,1,47.11,25Z" style="fill:#fff"/><path d="M75,143a67.82,67.82,0,0,1-60.42-36.77,2,2,0,1,1,3.55-1.84A63.83,63.83,0,0,0,75,139a64.77,64.77,0,0,0,10.24-.81,2,2,0,1,1,.63,3.95A69.18,69.18,0,0,1,75,143Z" style="fill:#fff"/><path d="M97.9,138.92a2,2,0,0,1-.69-3.88,63.91,63.91,0,0,0,41.11-50.67,2,2,0,1,1,4,.58A68,68,0,0,1,98.59,138.8,2.09,2.09,0,0,1,97.9,138.92Z" style="fill:#fff"/><path d="M140.93,73.94a2,2,0,0,1-2-1.91,64.08,64.08,0,0,0-15.79-39.2,2,2,0,0,1,3-2.64,68.17,68.17,0,0,1,16.78,41.66A2,2,0,0,1,141,73.94Z" style="fill:#fff"/><path d="M26.45,32.29A2,2,0,0,1,25,28.93a68,68,0,0,1,93.24-6.43,2,2,0,0,1-2.54,3.09,64,64,0,0,0-87.76,6.05A2,2,0,0,1,26.45,32.29Z" style="fill:#fff"/><path d="M12.35,97.84a2,2,0,0,1-1.89-1.37,68.14,68.14,0,0,1,8.71-60.3,2,2,0,1,1,3.28,2.28,64.18,64.18,0,0,0-8.2,56.75A2,2,0,0,1,13,97.73,2.05,2.05,0,0,1,12.35,97.84Z" style="fill:#fff"/><path d="M106.22,11a2,2,0,0,1-.85-.2A70.43,70.43,0,0,0,75,4,71.4,71.4,0,0,0,58.55,5.91,2,2,0,0,1,57.63,2,75.46,75.46,0,0,1,75,0a74.32,74.32,0,0,1,32.08,7.19,2,2,0,0,1,1,2.66A2,2,0,0,1,106.22,11Z" style="fill:#fff"/><path d="M10.76,42.3a1.93,1.93,0,0,1-.95-.25A2,2,0,0,1,9,39.34,75.44,75.44,0,0,1,45.66,6a2,2,0,1,1,1.57,3.68A71.39,71.39,0,0,0,12.52,41.25,2,2,0,0,1,10.76,42.3Z" style="fill:#fff"/><path d="M6.72,102.88a2,2,0,0,1-1.87-1.29,75.28,75.28,0,0,1-.07-53A2,2,0,1,1,8.52,50a71.32,71.32,0,0,0,.07,50.16,2,2,0,0,1-1.87,2.71Z" style="fill:#fff"/><path d="M25.4,130.56A2,2,0,0,1,24,130a74.9,74.9,0,0,1-16.85-23,2,2,0,0,1,3.61-1.71,70.75,70.75,0,0,0,16,21.72,2,2,0,0,1-1.36,3.47Z" style="fill:#fff"/><path d="M75,150a74.41,74.41,0,0,1-44.17-14.38,2,2,0,1,1,2.35-3.23A70.5,70.5,0,0,0,75,146a72,72,0,0,0,14.31-1.44,2,2,0,1,1,.8,3.92A75.49,75.49,0,0,1,75,150Z" style="fill:#fff"/><path d="M103.34,144.3a2,2,0,0,1-.78-3.85,71.56,71.56,0,0,0,34.05-30.13,2,2,0,1,1,3.46,2,75.56,75.56,0,0,1-36,31.83A1.9,1.9,0,0,1,103.34,144.3Z" style="fill:#fff"/><path d="M142.68,104.4a2,2,0,0,1-1.85-2.76,71.12,71.12,0,0,0-5.62-64.28,2,2,0,1,1,3.39-2.13,75.16,75.16,0,0,1,5.94,67.92A2,2,0,0,1,142.68,104.4Z" style="fill:#fff"/><path d="M131.68,31a2,2,0,0,1-1.56-.74,71.12,71.12,0,0,0-18-15.79,2,2,0,1,1,2.09-3.41,75.05,75.05,0,0,1,19,16.68A2,2,0,0,1,131.68,31Z" style="fill:#fff"/><path d="M105.22,151.19a2,2,0,0,1-.75-3.85,79,79,0,0,0,7.61-3.61,2,2,0,0,1,1.91,3.52,82.44,82.44,0,0,1-8,3.79A2,2,0,0,1,105.22,151.19Z" style="fill:#fff"/><path d="M118,144.58a2,2,0,0,1-1.07-3.68,78.55,78.55,0,0,0,13.36-10.76A2,2,0,0,1,133.1,133a83,83,0,0,1-14,11.31A2,2,0,0,1,118,144.58Z" style="fill:#fff"/><path d="M135.87,129a2,2,0,0,1-1.3-.48,2,2,0,0,1-.22-2.82c.94-1.1,1.86-2.24,2.73-3.38a2,2,0,1,1,3.18,2.43c-.91,1.2-1.88,2.39-2.87,3.55A2,2,0,0,1,135.87,129Z" style="fill:#fff"/><path d="M120.61,151.19a2,2,0,0,1-1-3.7c2.14-1.32,4.24-2.75,6.24-4.24a2,2,0,0,1,2.4,3.2c-2.1,1.57-4.3,3.06-6.54,4.44A1.91,1.91,0,0,1,120.61,151.19Z" style="fill:#fff"/><path d="M134,141a2,2,0,0,1-1.47-.64,2,2,0,0,1,.11-2.83,84.34,84.34,0,0,0,8.48-9.05,2,2,0,1,1,3.11,2.51,89.34,89.34,0,0,1-8.87,9.48A2,2,0,0,1,134,141Z" style="fill:#fff"/><path d="M119.16,160.1a2,2,0,0,1-1-3.77A91.18,91.18,0,0,0,129,149.61a2,2,0,0,1,2.35,3.24,94.36,94.36,0,0,1-11.22,7A2,2,0,0,1,119.16,160.1Z" style="fill:#fff"/><path d="M136.11,148.52a2,2,0,0,1-1.3-3.52,93.66,93.66,0,0,0,8-7.71,2,2,0,1,1,2.94,2.71,95.66,95.66,0,0,1-8.32,8A2,2,0,0,1,136.11,148.52Z" style="fill:#fff"/><path d="M143.92,159.6a2,2,0,0,1-1.26-3.55c.67-.54,1.33-1.1,2-1.67a2,2,0,0,1,2.62,3q-1,.89-2.07,1.74A2,2,0,0,1,143.92,159.6Z" style="fill:#fff"/><path d="M130.14,161.73a2,2,0,0,1-1.1-3.67c2.76-1.81,5.47-3.77,8.05-5.85a2,2,0,0,1,2.51,3.11,103.08,103.08,0,0,1-8.37,6.08A2,2,0,0,1,130.14,161.73Z" style="fill:#fff"/><path d="M142.68,152.06a2,2,0,0,1-1.34-3.48c1.51-1.36,3-2.79,4.42-4.25a2,2,0,0,1,2.86,2.8c-1.48,1.51-3,3-4.6,4.42A2,2,0,0,1,142.68,152.06Z" style="fill:#fff"/><path d="M89,112.33a2,2,0,0,1-.74-3.86,35.85,35.85,0,0,0,16.84-13.73,2,2,0,1,1,3.35,2.19,39.9,39.9,0,0,1-18.71,15.26A1.91,1.91,0,0,1,89,112.33Z" style="fill:#fff"/><path d="M92.33,102.71a2,2,0,0,1-1.65-.89,2,2,0,0,1,.53-2.77,29.41,29.41,0,0,0,9-9.64,2,2,0,0,1,3.47,2,33.19,33.19,0,0,1-10.19,11A2,2,0,0,1,92.33,102.71Z" style="fill:#fff"/><path d="M104.47,86.66a2,2,0,0,1-.63-.1A2,2,0,0,1,102.56,84c.29-.87.54-1.77.74-2.66a2,2,0,1,1,3.9.88c-.23,1-.51,2-.83,3A2,2,0,0,1,104.47,86.66Z" style="fill:#fff"/></svg>